<?xml version="1.0" encoding="utf-8"?>
<!-- Generator: Adobe Illustrator 19.2.1, SVG Export Plug-In . SVG Version: 6.00 Build 0)  -->
<svg version="1.1" id="Layer_1" xmlns="http://www.w3.org/2000/svg" xmlns:xlink="http://www.w3.org/1999/xlink" x="0px" y="0px"
	 viewBox="0 0 124.8 40" style="enable-background:new 0 0 124.8 40;" xml:space="preserve">
<style type="text/css">
	.st0{fill:#660066;}
</style>
<path class="st0" d="M91.7,15.3h-3.8v1.3h-0.8v1.6h0.8v7.3c0,1.2,0,2,0.1,2.4s0.2,0.6,0.5,0.9s0.6,0.4,1,0.5c0.4,0.1,1,0.1,1.8,0.1
	h1.5v-2c-0.6,0-1.2-0.7-1.2-1.5l0-7.7l1.2,0v-1.6h-1.2L91.7,15.3L91.7,15.3z"/>
<path class="st0" d="M119.8,25.5c0,1.2,0,2,0.1,2.4c0.1,0.3,0.2,0.6,0.5,0.9c0.3,0.3,0.6,0.4,1,0.5c0.4,0.1,1,0.1,1.8,0.1h1.5v-2
	c-0.6,0-1.2-0.7-1.2-1.5v-7.7l1.2,0v-1.6h-1.2v-1.3h-3.8v1.3H119v1.6h0.8V25.5z"/>
<path class="st0" d="M112.6,23.7c1.3,0.7,2.1,1.2,2.2,1.3c0.1,0.2,0.2,0.5,0.2,1.1c0,0.4-0.1,0.7-0.2,0.8c-0.1,0.1-0.3,0.2-0.6,0.2
	c-0.3,0-0.4-0.1-0.5-0.3c-0.1-0.2-0.1-0.6-0.1-1.3v-0.8h-3.3v0.6c0,1,0.1,1.8,0.4,2.3s0.7,0.9,1.4,1.2c0.7,0.3,1.5,0.5,2.5,0.5
	c0.9,0,1.6-0.1,2.2-0.4c0.6-0.3,1.1-0.7,1.3-1.2c0.3-0.5,0.4-1.3,0.4-2.3c0-0.9-0.2-1.6-0.5-2.1c-0.3-0.5-1.1-1-2.2-1.5
	c-0.8-0.4-1.4-0.7-1.6-0.9c-0.3-0.2-0.4-0.4-0.5-0.6c-0.1-0.2-0.1-0.5-0.1-0.8c0-0.3,0.1-0.5,0.2-0.6c0.1-0.1,0.3-0.2,0.5-0.2
	c0.3,0,0.4,0.1,0.5,0.2c0.1,0.2,0.1,0.5,0.1,1.1v0.7h3.3V20c0-0.6,0-1.1-0.1-1.4c-0.1-0.3-0.2-0.6-0.6-1c-0.3-0.3-0.8-0.6-1.3-0.8
	c-0.6-0.2-1.3-0.2-2.1-0.2c-0.8,0-1.6,0-2.2,0.3c-0.6,0.3-1.1,0.6-1.3,1.1c-0.3,0.5-0.4,1.2-0.4,2.2c0,0.7,0.1,1.3,0.4,1.8
	S111.5,23,112.6,23.7z"/>
<path class="st0" d="M85.3,17.2c-0.4-0.3-0.9-0.6-1.6-0.6c-0.5,0-1,0.2-1.4,0.5c-0.4,0.2-0.7,0.6-1,1l0.1-1.5h-3.9v12.8h3.8V21
	c0-0.9,0-1.5,0.1-1.7c0.1-0.2,0.2-0.3,0.5-0.3c0.3,0,0.4,0.1,0.5,0.3s0.1,0.7,0.1,1.6v8.6h3.8v-8.7c0-1.1-0.1-1.9-0.2-2.3
	C85.9,17.9,85.7,17.5,85.3,17.2z"/>
<path class="st0" d="M93.7,16.6v12.8h3.8v-4.9c0-1.2,0-2,0.1-2.3c0.1-0.3,1.1-1.6,2.1-1.6v-4c-1,0.1-1.8,0.4-2.4,1.6l0.2-1.6H93.7
	L93.7,16.6z"/>
<path class="st0" d="M63,25.5c0,0.6,0,1.1-0.1,1.3s-0.3,0.3-0.5,0.3c-0.2,0-0.4-0.1-0.5-0.3c-0.1-0.2-0.2-0.6-0.2-1V20
	c0-0.5,0-0.9,0.1-1s0.2-0.2,0.4-0.2c0.2,0,0.4,0.1,0.5,0.3s0.1,0.5,0.1,1v0.6h3.5c0-1.2-0.1-1.2-0.3-1.9c-0.2-0.6-0.7-1.2-1.4-1.6
	c-0.7-0.4-1.5-0.5-2.5-0.5c-1,0-1.9,0.1-2.6,0.5c-0.7,0.4-1.1,0.9-1.4,1.4c-0.2,0.5-0.3,1.3-0.3,2.4v3.5c0,1.2,0.1,2.1,0.4,2.8
	s0.7,1.2,1.3,1.5c0.6,0.4,1.5,0.5,2.5,0.5c0.8,0,1.5-0.1,2.1-0.4c0.6-0.3,1-0.7,1.4-1.2s0.6-1,0.6-1.5c0.1-0.5,0.1-1.2,0.1-2.2H63
	V25.5L63,25.5z"/>
<path class="st0" d="M76,19.1c-0.1-0.4-0.4-0.8-0.7-1.3c-0.3-0.4-0.8-0.7-1.4-1c-0.6-0.3-1.4-0.3-2.2-0.3c-1,0-1.8,0.1-2.5,0.5
	c-0.6,0.4-1.1,0.9-1.4,1.6c-0.3,0.6-0.4,1.6-0.4,2.7v3.2c0,1.1,0.1,1.8,0.2,2.4c0.1,0.5,0.4,1,0.7,1.3c0.3,0.4,0.8,0.6,1.4,0.8
	c0.6,0.2,1.3,0.3,2.1,0.3c0.7,0,1.4-0.1,2-0.3c0.6-0.2,1.1-0.6,1.4-1c0.4-0.5,0.6-0.9,0.7-1.5c0.1-0.5,0.2-1.3,0.2-2.5v-3
	C76.2,20.2,76.1,19.5,76,19.1z M72.4,25.9c0,0.5,0,0.9-0.1,1c-0.1,0.2-0.2,0.2-0.5,0.2c-0.2,0-0.4-0.1-0.4-0.3
	c-0.1-0.2-0.1-0.6-0.1-1.1v-5.6c0-0.6,0-1,0.1-1.2c0.1-0.2,0.2-0.2,0.5-0.2c0.2,0,0.4,0.1,0.4,0.2c0.1,0.2,0.1,0.6,0.1,1.2
	L72.4,25.9L72.4,25.9z"/>
<path class="st0" d="M108.8,18.8c-0.1-0.7-0.5-1.2-1.2-1.7c-0.6-0.5-1.6-0.6-2.9-0.6c-1.1,0-1.9,0.1-2.6,0.5
	c-0.7,0.4-1.1,0.9-1.3,1.4c-0.2,0.5-0.3,1.2-0.3,2.1h3.6v-0.4c0-0.7,0-1.1,0.1-1.3c0.1-0.2,0.2-0.2,0.5-0.2c0.2,0,0.4,0.1,0.5,0.3
	c0.1,0.2,0.1,0.6,0.1,1.3c0,0.5,0,0.9-0.1,1c-0.1,0.2-0.7,0.5-2,1c-1.2,0.5-1.9,0.8-2.2,1.2c-0.3,0.3-0.4,1-0.4,1.9v1
	c0,1.3,0.3,2.1,0.8,2.4c0.6,0.4,1.2,0.6,1.8,0.6c0.5,0,0.9-0.1,1.3-0.3c0.4-0.2,0.7-0.6,0.9-1l0,1.3h3.7v-6.5
	C109,20.8,109,19.5,108.8,18.8z M105.3,25.8c0,0.6,0,1-0.1,1.2c-0.1,0.1-0.2,0.2-0.5,0.2c-0.3,0-0.4-0.1-0.5-0.3
	c-0.1-0.2-0.1-0.6-0.1-1.2c0-0.6,0.1-1,0.1-1.3c0.1-0.3,0.4-0.7,1.1-1.1V25.8L105.3,25.8z"/>
<path class="st0" d="M90.1,1.7c-1.3,0-2.4,1.1-2.4,2.4s1.1,2.4,2.4,2.4s2.4-1.1,2.4-2.4S91.4,1.7,90.1,1.7z"/>
<path class="st0" d="M4,8.5c-1.3,0-2.4,1.1-2.4,2.4s1.1,2.4,2.4,2.4s2.4-1.1,2.4-2.4S5.3,8.5,4,8.5z"/>
<path class="st0" d="M61.8,38.4c1.3,0,2.4-1.1,2.4-2.4c0-1.3-1.1-2.4-2.4-2.4c-1.3,0-2.4,1.1-2.4,2.4C59.4,37.3,60.5,38.4,61.8,38.4
	z"/>
<path class="st0" d="M90.1,0.1c-1.5,0-2.8,0.8-3.5,2c-0.1,0.1-0.1,0.3-0.2,0.4C86.3,2.8,86.2,3,86,3.2c-0.4,0.4-1,0.6-1,0.6l-28,8.2
	l0,0l-0.1,0c-0.3,0.1-1.3,0.3-2,0c-0.7-0.3-1.2-1.2-1.3-1.5c0,0,0-0.1,0-0.1h0C50.2,4.2,43.7,0,36.1,0C28,0,21,4.9,17.9,11.9
	c-0.2,0.4-0.6,1-1.2,1.3c-0.8,0.4-1.9,0.1-2,0.1l-2.2-0.6l-3.4-0.9c0,0-0.6-0.2-0.9-0.6C8.1,11,8,10.7,8,10.5c0-0.1,0-0.3-0.1-0.4
	C7.5,8.3,5.9,6.9,4,6.9c-2.2,0-4,1.8-4,4s1.8,4,4,4c1.2,0,2.2-0.5,2.9-1.3l0,0c0,0,0,0,0,0l0,0c0.1-0.1,0.2-0.2,0.2-0.3
	c0.1-0.2,0.3-0.3,0.6-0.4c0.5-0.2,1.1,0,1.1,0l3.4,0.9l2.2,0.6c0.1,0,1.2,0.4,1.7,1.1c0.3,0.6,0.3,1.3,0.3,1.7c0,0.1,0,0.2,0,0.3
	c-0.1,0.8-0.1,1.6-0.1,2.4c0,11,8.9,19.9,19.9,19.9c5.4,0,10.4-2.2,14-5.7c0.3-0.3,0.9-0.8,1.6-0.9c1-0.1,2,0.5,2,0.5l3.1,1.9h0
	c0,0,0.5,0.3,0.9,0.8c0.1,0.2,0.2,0.4,0.3,0.6c0.1,0.2,0.1,0.3,0.2,0.5c0.6,1.4,2,2.4,3.6,2.4c2.2,0,4-1.8,4-4s-1.8-4-4-4
	c0,0-0.1,0-0.1,0c-0.2,0-0.4,0-0.6,0.1c-0.2,0-0.4,0-0.6,0c-0.6-0.1-1.1-0.4-1.1-0.4l-3.1-1.9c0,0-1.1-0.7-1.4-1.6
	c-0.2-0.7,0-1.4,0.1-1.8c0-0.1,0.1-0.2,0.1-0.2c0,0,0,0,0,0l0,0c0.6-1.9,1-4,1-6.1c0-0.4,0-0.8,0-1.2c0,0,0,0,0,0c0-0.1,0-0.2,0-0.3
	c0-0.4,0-1.2,0.4-1.8c0.5-0.7,1.6-1.1,1.7-1.1l28-8.2c0,0,0.6-0.2,1.2-0.1c0.2,0,0.5,0.1,0.7,0.2c0.1,0.1,0.3,0.2,0.4,0.2v0
	c0.5,0.2,1.1,0.4,1.8,0.4c2.2,0,4-1.8,4-4C94.1,1.9,92.3,0.1,90.1,0.1z M4,14.1c-1.8,0-3.2-1.4-3.2-3.2c0-1.8,1.4-3.2,3.2-3.2
	c1.8,0,3.2,1.4,3.2,3.2C7.2,12.7,5.7,14.1,4,14.1z M32,30.2h-7V11.4h7V30.2z M31.1,8.8c-0.7,0.6-1.5,0.9-2.5,0.9S26.7,9.4,26,8.8
	c-0.7-0.6-1-1.4-1-2.4c0-0.9,0.3-1.7,1-2.4c0.7-0.7,1.5-1,2.5-1c1,0,1.8,0.3,2.5,1c0.7,0.7,1,1.5,1,2.4C32.1,7.4,31.7,8.2,31.1,8.8z
	 M51.8,25.1c-1.5,1.4-3.7,2.2-6.6,2.2l-1.2,0v-6.7c1.5,0,2.3-0.6,2.3-1.8c0-1.1-0.6-1.6-1.8-1.6c-1.2,0-1.8,0.7-1.8,2.2v16.8h-7.6
	v-16c0-1.7,0.2-3,0.5-4.1c0.3-1.1,0.9-2,1.7-3c0.9-1,2-1.8,3.4-2.4c1.4-0.6,2.8-0.9,4.2-0.9c2.6,0,4.8,0.9,6.6,2.6
	c1.8,1.8,2.7,3.9,2.7,6.5C54.2,21.5,53.4,23.5,51.8,25.1z M57.9,35.1l-5.6-3.5c0.1-0.2,0.3-0.4,0.4-0.5l5.5,3.4
	C58.1,34.6,58,34.9,57.9,35.1z M61.8,32.8c1.8,0,3.2,1.4,3.2,3.2c0,1.8-1.4,3.2-3.2,3.2c-1.8,0-3.2-1.4-3.2-3.2
	C58.6,34.3,60.1,32.8,61.8,32.8z M59.3,32.9c-0.2,0.1-0.3,0.3-0.5,0.5L53.3,30c0.1-0.2,0.2-0.4,0.3-0.6L59.3,32.9z M55.5,15
	c-0.1-0.4-0.2-0.9-0.4-1.3l31.1-9.1c0.1,0.4,0.2,0.9,0.4,1.3c0,0,0,0,0,0.1L55.5,15z M90.1,7.3c-1.8,0-3.2-1.4-3.2-3.2
	c0-1.8,1.4-3.2,3.2-3.2s3.2,1.4,3.2,3.2S91.9,7.3,90.1,7.3z"/>
</svg>
